<?xml version="1.0" encoding="utf-8"?>
<!-- Generator: Adobe Illustrator 27.9.0, SVG Export Plug-In . SVG Version: 6.00 Build 0)  -->
<svg version="1.1" id="Layer_1" xmlns="http://www.w3.org/2000/svg" xmlns:xlink="http://www.w3.org/1999/xlink" x="0px" y="0px"
	 viewBox="0 0 158.45 31.13" style="enable-background:new 0 0 158.45 31.13;" xml:space="preserve">
<style type="text/css">
	.st0{fill:#62B2E3;}
	.st1{fill-rule:evenodd;clip-rule:evenodd;fill:#62B2E3;}
</style>
<g>
	<path class="st0" d="M34.19,15.64c0.05,0.64-0.19,1.25-0.62,1.8c-1.18,1.54-1.62,3.3-1.56,5.23c0.06,1.77,0.18,3.55-0.83,5.19
		c-1.2,1.95-3.07,2.78-5.16,3.24c-0.81,0.18-1.46-0.33-1.73-1.14c-0.28-0.84,0.11-1.46,0.8-1.91c0.22-0.14,0.52-0.17,0.78-0.25
		c2.13-0.61,2.84-1.53,2.84-3.76c-0.01-2.26-0.21-4.63,1.06-6.58c0.97-1.49,0.86-2.54-0.02-3.98c-1.07-1.76-1.16-3.85-1.01-5.88
		c0.15-2.16-0.47-3.69-2.71-4.37C25.09,2.95,24.66,1.77,25,1c0.36-0.81,1.29-1.13,2.32-0.79c3.06,0.99,4.7,3.26,4.71,6.49
		c0,0.71,0.02,1.43,0,2.14c-0.05,1.64,0.35,3.13,1.36,4.44C33.91,13.95,34.25,14.69,34.19,15.64z"/>
	<path class="st0" d="M9.26,1.66c0.02,0.9-0.54,1.43-1.29,1.65c-1.98,0.6-2.63,2.01-2.53,3.9c0.14,2.78-0.1,5.46-1.79,7.81
		c-0.26,0.37-0.23,0.75,0.03,1.1c1.49,2.01,1.87,4.31,1.75,6.74c-0.03,0.63-0.01,1.27,0.02,1.9c0.06,1.12,0.6,1.94,1.6,2.45
		c0.39,0.2,0.79,0.37,1.17,0.58c0.98,0.53,1.31,1.37,0.92,2.26c-0.35,0.79-1.36,1.08-2.37,0.69c-3.24-1.27-4.63-3.3-4.68-6.8
		c-0.02-1.88,0.29-3.82-0.83-5.54c-0.19-0.3-0.37-0.6-0.57-0.9c-0.91-1.36-0.95-2.74,0.02-4.08c1.07-1.47,1.52-3.08,1.4-4.9
		C2.02,7.06,2.06,5.59,2.55,4.18C3.37,1.8,5.26,0.67,7.52,0.04C8.44-0.21,9.27,0.65,9.26,1.66z"/>
</g>
<g>
	<circle class="st1" cx="17.1" cy="10.11" r="2.86"/>
	<circle class="st1" cx="23.16" cy="13.31" r="2.75"/>
	<circle class="st1" cx="11.04" cy="13.31" r="2.75"/>
	<path class="st1" d="M22.17,22.79c1.47-1.47,1.47-3.84,0-5.31l-0.64-0.64c-0.05-0.06-0.1-0.13-0.16-0.18l-0.82-0.82
		c-0.95-0.95-2.2-1.43-3.45-1.42c-1.25,0-2.5,0.47-3.45,1.42l-0.82,0.82c-0.06,0.06-0.11,0.12-0.16,0.18l-0.64,0.64
		c-1.47,1.47-1.47,3.84,0,5.31c1.39,1.39,3.6,1.46,5.07,0.22C18.57,24.25,20.78,24.18,22.17,22.79z"/>
</g>
<g>
	<path class="st0" d="M45.52,22.15c-0.35,0-0.58-0.22-0.58-0.56v-0.98c0-0.35,0.24-0.56,0.58-0.56h1.62v-6.37h-2.49
		c-0.35,0-0.58-0.22-0.58-0.56v-0.98c0-0.35,0.24-0.56,0.58-0.56h2.49v-1.6c0-2.12,1.47-3.23,4.25-3.23s4.12,0.95,4.12,2.97v0.22
		c0,0.22-0.13,0.35-0.35,0.35h-1.82c-0.26,0-0.35-0.09-0.35-0.33V9.8c0-0.74-0.5-1.06-1.58-1.06c-1.15,0-1.67,0.35-1.67,1.08v1.75
		h4.48c0.35,0,0.59,0.22,0.59,0.56v0.98c0,0.35-0.24,0.56-0.59,0.56h-4.48v6.37h2.38c0.35,0,0.58,0.22,0.58,0.56v0.98
		c0,0.35-0.24,0.56-0.58,0.56H45.52z"/>
	<path class="st0" d="M67.25,12.01v9.17c0,0.69-0.43,1.17-1.13,1.17h-0.09c-0.69,0-1.13-0.48-1.13-1.17v-0.06
		c-0.69,0.85-1.75,1.28-3.1,1.28c-2.62,0-4.42-1.6-4.42-4.46v-5.92c0-0.46,0.3-0.76,0.78-0.76h1.08c0.43,0,0.74,0.3,0.74,0.76v5.92
		c0,1.52,0.8,2.34,2.32,2.34c1.52,0,2.34-0.82,2.34-2.34v-5.92c0-0.46,0.3-0.76,0.74-0.76h1.08C66.95,11.25,67.25,11.56,67.25,12.01
		z"/>
	<path class="st0" d="M69.91,21.59v-0.98c0-0.35,0.24-0.56,0.58-0.56h1.62v-5.16l-1.73-1.73c-0.41-0.41-0.46-0.93-0.04-1.34
		l0.43-0.43c0.41-0.41,0.93-0.37,1.34,0.04l1.28,1.28c0.61-1.13,1.84-1.69,3.62-1.69c2.67,0,4.1,1.28,4.1,3.73v0.63
		c0,0.58-0.3,0.89-0.89,0.89h-0.78c-0.54,0-0.85-0.3-0.85-0.87v-0.63c0-1.08-0.69-1.69-1.95-1.69c-1.24,0-1.93,0.61-1.93,1.69v5.29
		h2.38c0.35,0,0.58,0.22,0.58,0.56v0.98c0,0.35-0.24,0.56-0.58,0.56H70.5C70.15,22.15,69.91,21.93,69.91,21.59z"/>
	<path class="st0" d="M83.39,17.99v-2.58c0-2.77,1.82-4.4,5.07-4.4c3.12,0,4.9,1.19,4.9,3.62v0.32c0,0.3-0.17,0.52-0.52,0.52h-1.52
		c-0.26,0-0.48-0.2-0.48-0.5v-0.22c0-1.13-0.63-1.69-2.38-1.69c-1.71,0-2.47,0.74-2.47,2.21v2.84c0,1.47,0.76,2.21,2.47,2.21
		c1.75,0,2.38-0.56,2.38-1.69v-0.28c0-0.3,0.22-0.5,0.48-0.5h1.52c0.35,0,0.52,0.22,0.52,0.52v0.39c0,2.43-1.78,3.62-4.9,3.62
		C85.21,22.39,83.39,20.76,83.39,17.99z"/>
	<path class="st0" d="M96.28,17.95v-2.49c0-2.86,1.84-4.44,5.09-4.44c3.25,0,5.09,1.58,5.09,4.44v2.49c0,2.86-1.84,4.44-5.09,4.44
		C98.12,22.39,96.28,20.81,96.28,17.95z M103.86,18.21V15.2c0-1.39-0.87-2.12-2.49-2.12c-1.62,0-2.49,0.74-2.49,2.12v3.01
		c0,1.39,0.87,2.12,2.49,2.12C102.99,20.33,103.86,19.59,103.86,18.21z"/>
	<path class="st0" d="M109.49,21.39v-9.17c0-0.69,0.43-1.17,1.13-1.17h0.09c0.69,0,1.13,0.48,1.13,1.17v0.06
		c0.69-0.84,1.75-1.28,3.1-1.28c2.62,0,4.42,1.6,4.42,4.46v5.92c0,0.46-0.3,0.76-0.78,0.76h-1.08c-0.43,0-0.74-0.3-0.74-0.76v-5.92
		c0-1.52-0.8-2.34-2.32-2.34c-1.52,0-2.34,0.82-2.34,2.34v5.92c0,0.46-0.3,0.76-0.74,0.76h-1.08
		C109.79,22.15,109.49,21.85,109.49,21.39z"/>
	<path class="st0" d="M125.5,21.13v-1.13c0-0.74,0.39-1.13,1.13-1.13h1.47c0.74,0,1.13,0.39,1.13,1.13v1.13
		c0,0.74-0.39,1.13-1.13,1.13h-1.47C125.89,22.26,125.5,21.87,125.5,21.13z"/>
	<path class="st0" d="M135.62,21.59v-0.98c0-0.35,0.22-0.56,0.56-0.56h2.95v-6.7h-2.73c-0.35,0-0.56-0.22-0.56-0.56v-0.98
		c0-0.35,0.22-0.56,0.56-0.56h4.42c0.61,0,0.91,0.26,0.91,0.91v7.89h2.95c0.35,0,0.56,0.22,0.56,0.56v0.98
		c0,0.35-0.22,0.56-0.56,0.56h-8.49C135.84,22.15,135.62,21.93,135.62,21.59z M138.46,8.83V8c0-0.69,0.39-1.08,1.08-1.08h1.11
		c0.69,0,1.08,0.39,1.08,1.08v0.82c0,0.69-0.39,1.08-1.08,1.08h-1.11C138.85,9.91,138.46,9.52,138.46,8.83z"/>
	<path class="st0" d="M148.27,17.95v-2.49c0-2.86,1.84-4.44,5.09-4.44s5.09,1.58,5.09,4.44v2.49c0,2.86-1.84,4.44-5.09,4.44
		S148.27,20.81,148.27,17.95z M155.85,18.21V15.2c0-1.39-0.87-2.12-2.49-2.12s-2.49,0.74-2.49,2.12v3.01c0,1.39,0.87,2.12,2.49,2.12
		S155.85,19.59,155.85,18.21z"/>
</g>
</svg>
